<?xml version="1.0" encoding="UTF-8" standalone="no"?>
<svg
        xmlns:dc="http://purl.org/dc/elements/1.1/"
        xmlns:cc="http://creativecommons.org/ns#"
        xmlns:rdf="http://www.w3.org/1999/02/22-rdf-syntax-ns#"
        xmlns="http://www.w3.org/2000/svg"
        version="1.1"
        id="svg2"
        xml:space="preserve"
        width="283.45999"
        height="283.45999"
        viewBox="0 0 283.45999 283.45999"><metadata
     id="metadata8"><rdf:RDF><cc:Work
         rdf:about=""><dc:format>image/svg+xml</dc:format><dc:type
        rdf:resource="http://purl.org/dc/dcmitype/StillImage"/></cc:Work></rdf:RDF></metadata>
    <defs
            id="defs6"/>
    <g
            id="g10"
            transform="matrix(1.3333333,0,0,1.3333333,0,5.7531666e-6)"><g
       id="g12"><path
         d="m 183.609,47.844 -69.675,-7.028 h -4.207 l -23.543,28.895 -23.422,-27 H 60.48 L 28.988,56.852 v 1.5 l 30.684,9.441 -2.77,38.941 -3.554,4.778 v 4.984 l 54.84,59.258 c 0.585,0.633 1.273,1.125 2.046,1.465 0.766,0.336 1.59,0.508 2.414,0.508 l 4.653,0.089 16.281,1.457 v 19.161 l 1.574,0.472 16.082,-16.82 -0.437,-2.875 -34.926,-43.574 -0.426,-25.711 68.16,-59.031 v -3.059 z"
         style="fill:#6f9ee4;fill-opacity:1;fill-rule:nonzero;stroke:none"
         id="path14" /></g></g></svg>
